<svg width="149" height="43" viewBox="0 0 149 43" fill="none" xmlns="http://www.w3.org/2000/svg">
<g clip-path="url(#clip0_43_2518)">
<path d="M24.0618 27.8941H20.2024V25.9794C19.6223 26.5969 18.9114 27.0874 18.1175 27.4177C17.3237 27.748 16.4655 27.9105 15.6009 27.8941C11.1477 27.8941 8 24.6657 8 20.0628C8 15.4598 10.9098 12.202 15.3629 12.202C18.0414 12.202 19.5694 13.6313 19.9645 14.1462V12.202H24.0618V27.8941ZM16.1051 15.6889C13.7301 15.6889 12.1257 17.4881 12.1257 20.0901C12.1257 22.7489 13.7891 24.4072 16.1051 24.4072C18.598 24.4072 20.0824 22.463 20.0824 20.0901C20.0824 17.2905 18.3601 15.6889 16.1051 15.6889Z" fill="#EE2C6C"/>
<path d="M45.5787 27.5242H41.7193V25.9794C41.1396 26.5973 40.4287 27.0881 39.6348 27.4185C38.8409 27.7488 37.9825 27.911 37.1178 27.8941C32.6647 27.8941 29.5191 24.6658 29.5191 20.0628C29.5191 15.4598 32.4289 12.202 36.882 12.202C39.5539 12.202 41.0972 13.6313 41.4836 14.1462V7.39941H45.5787V27.5242ZM37.6242 15.6889C35.2492 15.6889 33.6448 17.4902 33.6448 20.0901C33.6448 22.7489 35.3082 24.4072 37.6242 24.4072C40.1171 24.4072 41.6015 22.4631 41.6015 20.0901C41.6015 17.2905 39.8704 15.6889 37.6242 15.6889Z" fill="#EE2C6C"/>
<path d="M59.3792 12.202C64.1292 12.202 67.7506 15.5649 67.7506 20.0901C67.7506 24.6153 64.258 27.8941 59.3792 27.8941C54.5004 27.8941 51.0361 24.6069 51.0361 20.0901C51.0361 15.5733 54.6598 12.202 59.3792 12.202ZM59.3792 24.4072C61.8437 24.4072 63.6555 22.6354 63.6555 20.0901C63.6555 17.5448 61.8437 15.6889 59.3792 15.6889C56.9147 15.6889 55.1334 17.5175 55.1334 20.0901C55.1334 22.6627 56.9453 24.4072 59.3792 24.4072ZM52.8196 7.39941H65.9694V10.2873H52.8196V7.39941Z" fill="#EE2C6C"/>
<path d="M73.2076 12.202H74.8274V15.3737C75.2159 14.802 77.0299 12.2588 81.077 12.2588C85.8794 12.2588 89.2694 15.4893 89.2694 20.006C89.2694 24.5796 85.9667 27.8374 81.2385 27.8374C77.4185 27.8374 75.3775 25.5506 74.8274 24.6363V35.7423H73.2076V12.202ZM81.2058 26.4943C84.8665 26.4943 87.5864 23.8061 87.5864 20.006C87.5864 16.1177 84.7356 13.6018 81.1425 13.6018C77.2242 13.6018 74.7619 16.517 74.7619 20.006C74.7619 24.1214 77.7088 26.4943 81.2058 26.4943Z" fill="#EE2C6C"/>
<path d="M102.374 12.2587C106.931 12.2587 109.837 15.4325 109.837 19.6907V20.2918H96.3181C96.3181 24.2348 99.0097 26.5216 102.801 26.5216C105.74 26.5216 107.359 25.1785 108.278 23.9784L109.287 24.6342C108.248 26.2063 106.231 27.8352 102.801 27.8352C98.1234 27.8352 94.7246 24.7203 94.7246 20.088C94.7268 15.2307 98.3373 12.2587 102.374 12.2587ZM108.248 19.0328C108.064 15.3169 105.342 13.5682 102.343 13.5682C99.4681 13.5682 96.7154 15.3967 96.4098 19.0328H108.248Z" fill="#EE2C6C"/>
<path d="M117.374 7.39941H118.974V12.2083H124.054V13.5514H118.974V22.2781C118.974 25.6536 119.808 26.5195 122.306 26.5195C122.659 26.5195 124.052 26.4901 124.052 26.4901V27.8353C124.052 27.8353 122.271 27.8941 121.664 27.8941C119.044 27.8941 117.372 26.3703 117.372 23.2344V13.5514H115.322V12.2083H117.372L117.374 7.39941Z" fill="#EE2C6C"/>
<path d="M131.435 23.9511C132.089 25.2648 133.277 26.5511 135.765 26.5511C137.671 26.5511 139.415 25.5002 139.415 23.6632C139.415 19.6698 130.756 20.9771 130.756 16.0967C130.756 13.7259 132.921 12.2672 135.765 12.2672C138.867 12.2672 140.288 14.039 140.677 15.2097L139.352 15.6658C138.9 14.7515 138.06 13.522 135.641 13.522C133.831 13.522 132.345 14.4384 132.345 16.0105C132.345 19.84 141.007 18.5327 141.007 23.6128C141.007 26.0992 138.743 27.8437 135.706 27.8437C132.087 27.8437 130.729 25.9289 130.051 24.443L131.435 23.9511Z" fill="#EE2C6C"/>
</g>
<defs>
<clipPath id="clip0_43_2518">
<rect width="133" height="28.3429" fill="white" transform="translate(8 7.39941)"/>
</clipPath>
</defs>
</svg>
